<svg xmlns="http://www.w3.org/2000/svg" viewBox="0 0 1440 320"><path fill="#0099ff" fill-opacity="1" d="M0,64L26.7,96C53.3,128,107,192,160,224C213.3,256,267,256,320,234.7C373.3,213,427,171,480,176C533.3,181,587,235,640,229.3C693.3,224,747,160,800,154.7C853.3,149,907,203,960,208C1013.3,213,1067,171,1120,165.3C1173.3,160,1227,192,1280,202.7C1333.3,213,1387,203,1413,197.3L1440,192L1440,320L1413.3,320C1386.7,320,1333,320,1280,320C1226.7,320,1173,320,1120,320C1066.7,320,1013,320,960,320C906.7,320,853,320,800,320C746.7,320,693,320,640,320C586.7,320,533,320,480,320C426.7,320,373,320,320,320C266.7,320,213,320,160,320C106.7,320,53,320,27,320L0,320Z"></path></svg>